<?xml version="1.0" encoding="UTF-8" standalone="no" ?>
<!DOCTYPE svg PUBLIC "-//W3C//DTD SVG 1.1//EN" "http://www.w3.org/Graphics/SVG/1.1/DTD/svg11.dtd">
<svg xmlns="http://www.w3.org/2000/svg" xmlns:xlink="http://www.w3.org/1999/xlink" version="1.1" width="1080px" height="1080px" viewBox="0 0 1080 1080" xml:space="preserve">
<desc>Created with Fabric.js 5.2.4</desc>
<defs>
</defs>
<g transform="matrix(1 0 0 1 540 540)" id="ab2c7f94-45da-4c94-b1a8-4462c4a599c9"  >
<rect style="stroke: none; stroke-width: 1; stroke-dasharray: none; stroke-linecap: butt; stroke-dashoffset: 0; stroke-linejoin: miter; stroke-miterlimit: 4; fill: rgb(255,255,255); fill-rule: nonzero; opacity: 1; visibility: hidden;" vector-effect="non-scaling-stroke"  x="-540" y="-540" rx="0" ry="0" width="1080" height="1080" />
</g>
<g transform="matrix(1 0 0 1 540 540)" id="c3b617f5-65ad-43b1-9924-a503a373d053"  >
</g>
<g transform="matrix(1 0 0 1 540 540)" id="path851"  >
<path style="stroke: rgb(0,0,0); stroke-width: 0; stroke-dasharray: none; stroke-linecap: butt; stroke-dashoffset: 0; stroke-linejoin: miter; stroke-miterlimit: 4; fill: rgb(255,255,255); fill-rule: nonzero; opacity: 1;" vector-effect="non-scaling-stroke"  transform=" translate(-400.2, -85.16)" d="M 171.16587 8.5084951 C 171.16587 8.5084951 163.29701 9.068268 163.28739000000002 16.296128 L 163.25509000000002 40.542615999999995 C 163.25509000000002 40.542615999999995 169.41136000000003 32.307376 178.07372000000004 32.307376 L 188.38631000000004 32.307376 C 188.38631000000004 32.307376 196.82012000000003 31.804602 196.82012000000003 24.792209999999997 L 196.82012000000003 16.130045999999997 C 196.82012000000003 16.130045999999997 196.81912000000003 8.508481899999996 188.20207000000002 8.508495099999998 z M 392.21714 14.090373 C 382.84533999999996 14.090373 382.84653 22.539737 382.84653 22.539737 L 382.84653 41.745455 L 362.10458 41.745455 L 362.10458 54.65047 C 362.10458 54.65047 362.10358 62.946735 371.47517 62.946735 L 382.84653 62.946735 L 382.84653 127.3213 C 383.46108999999996 148.42329999999998 405.73630999999995 160.66726 424.78718999999995 160.66725 L 450.13788999999997 160.66725 C 457.05150999999995 160.66725 458.12794999999994 151.13317 458.12794999999994 151.13317 L 458.12794999999994 138.84317000000001 C 445.52978999999993 141.30136000000002 435.2347199999999 138.69005 435.2347199999999 138.69005 C 415.72293999999994 133.00553000000002 416.3378199999999 118.25690000000002 416.3378199999999 118.25690000000002 L 416.3378199999999 62.946735 L 482.40172999999993 62.946735 L 482.40172999999993 127.3213 C 483.0162899999999 148.42329999999998 505.29410999999993 160.66726 524.3449899999999 160.66725 L 549.6931099999999 160.66725 C 556.6067199999999 160.66725 557.68315 151.13317 557.68315 151.13317 L 557.68315 138.84317000000001 C 545.08499 141.30136000000002 534.79251 138.69005 534.79251 138.69005 C 515.28073 133.00553000000002 515.89562 118.25690000000002 515.89562 118.25690000000002 L 515.89562 62.946735 L 548.01932 62.946735 C 557.40316 62.946735 557.22124 55.33815 557.22124 55.33815 L 557.22124 41.745455 L 515.89562 41.745455 L 515.89562 23.463561 C 515.89562 14.618058999999999 507.90554000000003 14.090372999999998 507.90554000000003 14.090372999999998 L 491.77234000000004 14.090372999999998 C 482.40054000000003 14.090372999999998 482.40173000000004 22.539736999999995 482.40173000000004 22.539736999999995 L 482.40173000000004 41.745455 L 416.33782 41.745455 L 416.33782 23.463561 C 416.33782 14.618058999999999 408.35036 14.090372999999998 408.35036 14.090372999999998 z M 732.7663 14.090373 C 723.39449 14.090373 723.3956900000001 22.539737 723.3956900000001 22.539737 L 723.3956900000001 127.3213 C 724.0102400000001 148.42329999999998 746.2854600000001 160.66726 765.3363400000001 160.66725 L 790.6870500000001 160.66725 C 797.6006700000002 160.66725 798.6771100000001 151.13317 798.6771100000001 151.13317 L 798.6771100000001 138.84317000000001 C 786.0789400000001 141.30136000000002 775.7838800000001 138.69005 775.7838800000001 138.69005 C 756.27209 133.00553000000002 756.88697 118.25690000000002 756.88697 118.25690000000002 L 756.88697 23.463561 C 756.88697 14.618058999999999 748.89951 14.090372999999998 748.89951 14.090372999999998 z M 279.46629 40.904672 C 273.94342 40.917972 250.73847 41.60867 232.94283000000001 51.834877999999996 C 221.25889 58.549001999999994 213.79543 69.77744899999999 213.46464 93.269505 C 213.46464 93.269505 213.53844 128.08935 218.45487 136.38569 C 218.45487 136.38569 224.22322 148.22339000000002 237.1182 155.36823 C 242.69107 158.45603 253.89555000000001 160.66725000000002 262.24057 160.66725000000002 L 344.1289 160.66725000000002 C 344.1289 160.66725000000002 352.11895 159.89155000000002 352.11895 150.05883000000003 L 352.11895 139.30508000000003 L 270.68994 139.30508000000003 C 270.68994 139.30508000000003 248.87523 138.68979000000004 248.41431999999998 113.95438000000003 C 248.39011999999997 112.65781000000003 248.38621999999998 111.61615000000003 248.37022 110.41995000000003 L 340.5945 110.41995000000003 C 340.5945 110.41995000000003 356.72771 109.19195000000003 356.72771 88.29745100000002 C 356.72771 88.29745100000002 359.339 66.78676700000003 342.59266 53.420433000000024 C 325.84631 40.05408600000003 298.97129 41.31488100000003 280.68337 40.91505000000002 C 280.68337 40.91505000000002 280.25527000000005 40.90309000000002 279.46630000000005 40.90442000000002 z M 629.45352 40.904672 C 623.93064 40.916641999999996 600.72571 41.60867 582.93006 51.834877999999996 C 571.24611 58.549001999999994 563.7826600000001 69.77744899999999 563.45186 93.269505 C 563.45186 93.269505 563.52566 128.08935 568.44209 136.38569 C 568.44209 136.38569 574.21046 148.22339000000002 587.10545 155.36823 C 592.6782900000001 158.45603 603.88277 160.66725000000002 612.2278 160.66725000000002 L 694.11612 160.66725000000002 C 694.11612 160.66725000000002 702.10619 159.89156000000003 702.10619 150.05883000000003 L 702.10619 139.30508000000003 L 620.6771699999999 139.30508000000003 C 620.6771699999999 139.30508000000003 598.8624599999999 138.68979000000004 598.40154 113.95438000000003 C 598.37754 112.65781000000003 598.3708399999999 111.61615000000003 598.35484 110.41995000000003 L 690.58173 110.41995000000003 C 690.58173 110.41995000000003 706.71495 109.19195000000003 706.71495 88.29745100000002 C 706.71495 88.29745100000002 709.32622 66.78676700000003 692.5798900000001 53.420433000000024 C 675.8335500000001 40.05408600000003 648.9585200000001 41.31488100000003 630.6705900000001 40.91505000000002 C 630.6705900000001 40.91505000000002 630.2425000000001 40.90309000000002 629.4535400000001 40.90442000000002 z M 1.7269052 42.163249 L 58.882137 152.47478 C 58.882137 152.47478 61.930841 161.81166000000002 78.887109 161.81166000000002 L 84.98280199999999 161.81166000000002 C 84.98280199999999 161.81166000000002 97.557301 162.38205000000002 103.65393999999999 151.52243 C 109.75057999999999 140.66279 160.81177 42.16324900000001 160.81177 42.16324900000001 L 134.7085 42.16324900000001 C 134.7085 42.16324900000001 124.80275999999999 43.68808500000001 118.51560999999998 56.64344200000001 C 112.22842999999997 69.59879900000001 83.27008199999997 131.13598000000002 83.27008199999997 131.13598000000002 C 83.27008199999997 131.13598000000002 80.98325199999998 134.56534000000002 79.26857799999998 131.13598000000002 C 77.55388999999998 127.70662000000002 41.54483199999998 52.641925000000015 41.54483199999998 52.641925000000015 C 41.54483199999998 52.641925000000015 35.06733999999998 42.163249000000015 27.827574999999978 42.163249000000015 z M 171.47988 42.163249 C 171.47988 42.163249 163.28739000000002 42.164549 163.28739000000002 51.500124 L 163.28739000000002 152.66682 C 163.28739000000002 152.66682 163.85843000000003 160.66725 172.05078 160.66725 L 190.34046 160.66725 C 190.34046 160.66725 196.8202 160.28762 196.82022 150.3806 L 196.82022 50.355719 C 196.82022 50.355719 195.48430000000002 42.163249 189.00662 42.163249 z M 284.97291 61.991769000000005 C 294.54666000000003 61.99566900000001 308.73492 63.389946 316.3207 70.783687 C 316.3207 70.783687 322.00639 75.391425 322.00639 82.458665 C 322.00639 89.679538 317.3972 89.680602 316.01448 89.680588 L 264.54494 89.680588 C 264.54494 89.680588 256.18584 88.95679200000001 248.35463 96.404279 C 248.51532999999998 86.225914 249.02934 83.073684 249.02934 83.073684 C 249.02934 83.073684 248.87382 65.250266 275.14558999999997 62.48483 C 275.14558999999997 62.48483 279.22864999999996 61.989071 284.97290999999996 61.991769000000005 z M 634.96015 61.991769000000005 C 644.53388 61.99566900000001 658.72215 63.389946 666.30794 70.783687 C 666.30794 70.783687 671.99361 75.391425 671.99361 82.458665 C 671.99361 89.679538 667.38443 89.68061499999999 666.00172 89.680588 L 614.5321799999999 89.680588 C 614.5321799999999 89.680588 606.1730799999999 88.95679200000001 598.3418599999999 96.404279 C 598.5025599999999 86.225914 599.0165699999999 83.073684 599.0165699999999 83.073684 C 599.0165699999999 83.073684 598.8610399999999 65.250279 625.1328099999998 62.48483 C 625.1328099999998 62.48483 629.2158899999998 61.989111 634.9601499999999 61.991769000000005 z" stroke-linecap="round" />
</g>
</svg>
